<svg xmlns="http://www.w3.org/2000/svg" viewBox="0 0 1200 320" width="1200" height="320" role="img" aria-label="test-gap — Lines you just changed that lack test coverage.">
      <defs>
        <linearGradient id="bg" x1="0" x2="1" y1="0" y2="1">
          <stop offset="0%" stop-color="#0d1117"/>
          <stop offset="100%" stop-color="#161b22"/>
        </linearGradient>
        <linearGradient id="accentLine" x1="0" x2="1" y1="0" y2="0">
          <stop offset="0%" stop-color="#d29922" stop-opacity="0"/>
          <stop offset="50%" stop-color="#d29922" stop-opacity="1"/>
          <stop offset="100%" stop-color="#d29922" stop-opacity="0"/>
        </linearGradient>
      </defs>
      <rect width="1200" height="320" fill="url(#bg)"/>
      <rect x="0" y="0" width="1200" height="3" fill="url(#accentLine)"/>
      <text x="60" y="130" font-family="ui-sans-serif,system-ui,-apple-system,Segoe UI,Roboto,sans-serif" font-size="64" font-weight="800" fill="#e6edf3" letter-spacing="-1.5">test-gap</text>
      <text x="60" y="175" font-family="ui-monospace,SFMono-Regular,Menlo,monospace" font-size="22" fill="#d29922">/test-gap</text>
      <text x="60" y="225" font-family="ui-sans-serif,system-ui,sans-serif" font-size="22" fill="#8b949e">Lines you just changed that lack test coverage.</text>
      <g transform="translate(820,60)">
    <text x="0" y="30" font-family="ui-monospace,monospace" font-size="13" fill="#8b949e">src/auth/refresh.py</text>
    <rect x="0" y="50" width="40" height="22" fill="#238636"/>
    <rect x="42" y="50" width="40" height="22" fill="#238636"/>
    <rect x="84" y="50" width="40" height="22" fill="#d29922"/>
    <rect x="126" y="50" width="40" height="22" fill="#d29922"/>
    <rect x="168" y="50" width="40" height="22" fill="#d29922"/>
    <rect x="210" y="50" width="40" height="22" fill="#238636"/>
    <text x="0" y="100" font-family="ui-monospace,monospace" font-size="13" fill="#8b949e">tests/test_refresh.py</text>
    <rect x="0" y="120" width="40" height="22" fill="#238636"/>
    <rect x="42" y="120" width="40" height="22" fill="#238636"/>
    <rect x="84" y="120" width="40" height="22" fill="#238636"/>
    <rect x="126" y="120" width="40" height="22" fill="#238636"/>
    <text x="0" y="170" font-family="ui-sans-serif,sans-serif" font-size="13" fill="#d29922">3 changed lines uncovered</text>
</g>
      <text x="60" y="290" font-family="ui-monospace,monospace" font-size="13" fill="#6e7681">pluginpool · MIT · Python 3 stdlib only</text>
    </svg>
